<svg xmlns="http://www.w3.org/2000/svg" viewBox="0 0 412.46 329.89"><defs><style>.cls-1{isolation:isolate;}.cls-2{fill:#f0f0f0;}.cls-17,.cls-3{fill:#fafafa;}.cls-4{fill:#e0e0e0;}.cls-5{fill:#e6e6e6;}.cls-6{fill:#ebebeb;}.cls-12,.cls-7{fill:#fff;}.cls-8{fill:#f5f5f5;}.cls-11,.cls-14,.cls-9{fill:#263238;}.cls-10{fill:#407bff;}.cls-11{opacity:0.4;}.cls-12{opacity:0.1;}.cls-13,.cls-19{opacity:0.3;}.cls-13{mix-blend-mode:multiply;}.cls-14{opacity:0.8;}.cls-15{fill:#ffc3bd;}.cls-16{fill:#ed847e;}.cls-17,.cls-18{opacity:0.2;}</style></defs><title>Middel 1</title><g class="cls-1"><g id="Laag_2" data-name="Laag 2"><g id="Background_Complete" data-name="Background Complete"><path class="cls-2" d="M83.17,261.87H34a4.4,4.4,0,0,1-4.36-3.77L17.37,174A4.41,4.41,0,0,1,21.74,169H70.87a4.4,4.4,0,0,1,4.36,3.78l12.3,84.07A4.41,4.41,0,0,1,83.17,261.87Z"/><path class="cls-3" d="M39.88,261.87H16.71a4.4,4.4,0,0,1-4.36-3.77L.05,174A4.41,4.41,0,0,1,4.41,169H27.58A4.42,4.42,0,0,1,32,172.75l12.29,84.07A4.41,4.41,0,0,1,39.88,261.87Z"/><path class="cls-4" d="M333.12,147.67H94.32c-6.07,0-11.4,4.54-11.92,10.15l-6,64.92c-.52,5.61,4,10.15,10,10.15h238.8c6.07,0,11.4-4.54,11.92-10.15l6-64.92C343.68,152.21,339.19,147.67,333.12,147.67Z"/><path class="cls-5" d="M316.91,147.67H78.11c-6.07,0-11.4,4.54-11.92,10.15l-6,64.92c-.52,5.61,4,10.15,10,10.15H309c6.07,0,11.4-4.54,11.92-10.15l6-64.92C327.47,152.21,323,147.67,316.91,147.67Z"/><rect class="cls-6" x="81.38" y="190.95" width="37.5" height="104.33" rx="7.19" transform="translate(343.25 142.99) rotate(90)"/><rect class="cls-4" x="218.34" y="184.05" width="37.5" height="118.14" rx="6.58" transform="translate(480.21 6.03) rotate(90)"/><rect class="cls-6" x="192.61" y="184.05" width="37.5" height="118.14" rx="6.58" transform="translate(454.49 31.76) rotate(90)"/><path class="cls-2" d="M332.47,261.87H295.91a3.84,3.84,0,0,1-3.72-5.05l23-84.07a5.19,5.19,0,0,1,4.85-3.78h36.55a3.84,3.84,0,0,1,3.72,5.05l-23,84.08A5.17,5.17,0,0,1,332.47,261.87Z"/><path class="cls-3" d="M301.76,261.87H278.59a3.84,3.84,0,0,1-3.72-5.05l23-84.07a5.18,5.18,0,0,1,4.85-3.78H325.9a3.85,3.85,0,0,1,3.73,5.05l-23,84.08A5.19,5.19,0,0,1,301.76,261.87Z"/><polygon class="cls-4" points="282.38 284.73 278.86 284.73 270.44 261.87 279.14 261.87 282.38 284.73"/><polygon class="cls-4" points="327 284.73 323.48 284.73 315.05 261.87 323.76 261.87 327 284.73"/><polygon class="cls-4" points="73.37 284.73 76.89 284.73 85.31 261.87 76.6 261.87 73.37 284.73"/><polygon class="cls-4" points="28.75 284.73 32.27 284.73 40.69 261.87 31.98 261.87 28.75 284.73"/><rect class="cls-4" x="66.97" width="266.66" height="95.11"/><rect class="cls-2" x="64.52" width="266.66" height="95.11"/><rect class="cls-3" x="158.3" y="-77.78" width="79.11" height="250.66" transform="translate(245.41 -150.3) rotate(90)"/><circle class="cls-2" cx="197.85" cy="47.56" r="23.72"/><polygon class="cls-7" points="113.22 87.11 129.83 8 166.5 8 149.88 87.11 113.22 87.11"/><polygon class="cls-7" points="165.35 87.11 181.97 8 200.3 8 183.69 87.11 165.35 87.11"/><polygon class="cls-7" points="277.29 87.11 293.91 8 312.24 8 295.63 87.11 277.29 87.11"/><path class="cls-2" d="M392.58,154.1c-6.22,27,9,54.81,2.77,81.77l-6.16-.25-6.16-.26C393.36,208.57,382.25,180.89,392.58,154.1Z"/><path class="cls-2" d="M376.63,165.79c5.1,25.78-11.26,51.55-6.16,77.33H382.8C373.59,217.34,385.84,191.57,376.63,165.79Z"/><path class="cls-5" d="M388,144.35c-8.15,27.5,7,57.16-1.15,84.65l-6.7-.62-6.7-.63C386.09,200.68,375.39,171.43,388,144.35Z"/><path class="cls-5" d="M400,183.94c2.63,14.87-12,26.55-9.41,41.42l5,.91,5,.92C394.62,211.71,406,199.41,400,183.94Z"/><ellipse class="cls-4" cx="385.32" cy="254.55" rx="33.65" ry="37.68"/></g><g id="Shadow"><ellipse id="_Path_" data-name="&lt;Path&gt;" class="cls-8" cx="200.3" cy="318.57" rx="193.89" ry="11.32"/></g><g id="Board"><path class="cls-9" d="M334.1,176.93H118a4,4,0,0,1-4-4.24l7.27-132.48A4.55,4.55,0,0,1,125.74,36h216.1a4,4,0,0,1,4,4.24l-7.28,132.48A4.53,4.53,0,0,1,334.1,176.93Z"/><path class="cls-9" d="M243.19,58.5H222.31a11.88,11.88,0,0,1-12-12.64l.21-3.87a13.14,13.14,0,0,1,12.94-12.25h20.88a11.9,11.9,0,0,1,12,12.66l-.21,3.85A13.15,13.15,0,0,1,243.19,58.5Z"/><polygon class="cls-9" points="262.21 314.39 255.52 314.39 237.09 32.69 243.78 32.69 262.21 314.39"/><polygon class="cls-9" points="211.97 314.39 218.67 314.39 237.09 32.69 230.4 32.69 211.97 314.39"/><path class="cls-10" d="M333,176.93H116.85a4,4,0,0,1-4-4.24l7.28-132.48A4.55,4.55,0,0,1,124.59,36h216.1a4,4,0,0,1,4,4.24l-7.28,132.48A4.54,4.54,0,0,1,333,176.93Z"/><path class="cls-11" d="M120.28,172.87a3.17,3.17,0,0,1-3.2-3.38L124,43.41A3.62,3.62,0,0,1,127.57,40H337.26a3.18,3.18,0,0,1,3.2,3.38l-6.93,126.08a3.62,3.62,0,0,1-3.57,3.38Z"/><path class="cls-12" d="M331.26,106H268.15a2.69,2.69,0,0,1-2.72-2.87l3.15-57.39a.38.38,0,0,0-.38-.4.43.43,0,0,0-.43.4l-3.15,57.39a3.07,3.07,0,0,1-3,2.87H196a2.69,2.69,0,0,1-2.72-2.87l3.15-57.39a.38.38,0,0,0-.38-.4.43.43,0,0,0-.43.4l-3.15,57.39a3.07,3.07,0,0,1-3,2.87H126.32a.44.44,0,0,0-.43.41.39.39,0,0,0,.38.41h63.12a2.69,2.69,0,0,1,2.72,2.87L189,167.11a.38.38,0,0,0,.39.41.44.44,0,0,0,.43-.41l3.15-57.38a3.07,3.07,0,0,1,3-2.87h65.59a2.69,2.69,0,0,1,2.72,2.87l-3.16,57.38a.38.38,0,0,0,.39.41.44.44,0,0,0,.43-.41l3.15-57.38a3.07,3.07,0,0,1,3-2.87h63.12a.45.45,0,0,0,.43-.41A.39.39,0,0,0,331.26,106Z"/><polygon class="cls-11" points="228.35 55.78 203 55.78 201.59 81.56 226.9 82.24 228.35 55.78"/><path class="cls-7" d="M225.6,81.13l-25.44-1.24a223.3,223.3,0,0,0,2.65-26.31l25.59,1.24A221.58,221.58,0,0,1,225.6,81.13Z"/><polygon class="cls-11" points="258.92 73 233.53 74.94 234.09 100.65 259.49 99.39 258.92 73"/><path class="cls-10" d="M258.11,98.39l-25.58.71a220.88,220.88,0,0,0,.64-26.33l25.72-.72A223.36,223.36,0,0,1,258.11,98.39Z"/><polygon class="cls-11" points="184.78 119.9 137.97 118.11 133.78 159.74 180.47 162.62 184.78 119.9"/><path class="cls-7" d="M178.14,160.74l-46.9-3.8a318.72,318.72,0,0,0,6.51-42.4l47.17,3.81A317.56,317.56,0,0,1,178.14,160.74Z"/><g class="cls-13"><path class="cls-9" d="M136.61,61.6h0a2.48,2.48,0,0,1-2.5-2.63h0a2.83,2.83,0,0,1,2.79-2.64h0A2.47,2.47,0,0,1,139.39,59h0A2.82,2.82,0,0,1,136.61,61.6Z"/><path class="cls-14" d="M178,61.6H145.49A2.48,2.48,0,0,1,143,59h0a2.83,2.83,0,0,1,2.79-2.64h32.47a2.48,2.48,0,0,1,2.5,2.64h0A2.83,2.83,0,0,1,178,61.6Z"/><path class="cls-9" d="M136,73.11h0a2.48,2.48,0,0,1-2.49-2.64h0a2.83,2.83,0,0,1,2.78-2.64h0a2.48,2.48,0,0,1,2.5,2.64h0A2.83,2.83,0,0,1,136,73.11Z"/><path class="cls-14" d="M183.08,73.11H144.86a2.48,2.48,0,0,1-2.5-2.64h0a2.83,2.83,0,0,1,2.79-2.64h38.22a2.48,2.48,0,0,1,2.49,2.64h0A2.83,2.83,0,0,1,183.08,73.11Z"/><path class="cls-9" d="M135.34,84.62h0A2.48,2.48,0,0,1,132.85,82h0a2.83,2.83,0,0,1,2.78-2.64h0a2.49,2.49,0,0,1,2.5,2.64h0A2.84,2.84,0,0,1,135.34,84.62Z"/><path class="cls-14" d="M162.83,84.62H144.22A2.48,2.48,0,0,1,141.73,82h0a2.83,2.83,0,0,1,2.78-2.64h18.61A2.48,2.48,0,0,1,165.61,82h0A2.83,2.83,0,0,1,162.83,84.62Z"/><path class="cls-14" d="M180.06,96.12H161.45A2.47,2.47,0,0,1,159,93.49h0a2.82,2.82,0,0,1,2.78-2.64h18.61a2.47,2.47,0,0,1,2.49,2.64h0A2.82,2.82,0,0,1,180.06,96.12Z"/><path class="cls-9" d="M134.71,96.12h0a2.47,2.47,0,0,1-2.49-2.63h0A2.82,2.82,0,0,1,135,90.85h0a2.47,2.47,0,0,1,2.49,2.64h0A2.82,2.82,0,0,1,134.71,96.12Z"/><path class="cls-14" d="M152.18,96.12h-8.59a2.47,2.47,0,0,1-2.49-2.63h0a2.82,2.82,0,0,1,2.78-2.64h8.59a2.47,2.47,0,0,1,2.5,2.64h0A2.82,2.82,0,0,1,152.18,96.12Z"/></g><polygon class="cls-10" points="215.44 130.36 202.85 130.36 201.12 161.87 213.71 161.87 215.44 130.36"/><polygon class="cls-10" points="234.54 136.86 221.95 136.86 220.58 161.87 233.17 161.87 234.54 136.86"/><polygon class="cls-10" points="254.92 120.08 242.33 120.08 240.03 161.87 252.63 161.87 254.92 120.08"/><path class="cls-7" d="M205.65,148.14c-1.24,0-2.5,0-3.77-.09a21.66,21.66,0,0,1-7.62-1.55.81.81,0,0,1-.41-1.07.82.82,0,0,1,1.08-.41,19.78,19.78,0,0,0,7,1.4c15.11.78,28.34-3.15,41.66-12.38a46.62,46.62,0,0,0,10.83-10.5.79.79,0,0,1,1.12-.2.81.81,0,0,1,.21,1.13,47.34,47.34,0,0,1-11.24,10.91C232,144,219.59,148.14,205.65,148.14Z"/><path class="cls-7" d="M257.66,129.76a.66.66,0,0,1-.31-.06.81.81,0,0,1-.44-1.06,14.29,14.29,0,0,0,.7-8.74,55.12,55.12,0,0,1-10.06,5.34.83.83,0,0,1-1.06-.45.81.81,0,0,1,.45-1.06,53,53,0,0,0,10.67-5.8.78.78,0,0,1,.71-.11.8.8,0,0,1,.52.51,15.79,15.79,0,0,1-.43,10.93A.8.8,0,0,1,257.66,129.76Z"/><path class="cls-10" d="M324,98.7H277.12a2.79,2.79,0,0,1-2.82-3l2.18-39.6a3.15,3.15,0,0,1,3.1-2.95h46.84a2.81,2.81,0,0,1,2.83,3l-2.18,39.6A3.15,3.15,0,0,1,324,98.7ZM279.58,54a2.31,2.31,0,0,0-2.29,2.17l-2.18,39.6a2,2,0,0,0,2,2.13H324a2.32,2.32,0,0,0,2.29-2.17l2.18-39.6a2,2,0,0,0-.54-1.51,2,2,0,0,0-1.48-.62Z"/><path class="cls-10" d="M328.4,64.54h-52a.41.41,0,0,1,0-.82h52a.41.41,0,0,1,0,.82Z"/><path class="cls-10" d="M286.84,98.7h0a.4.4,0,0,1-.38-.43l1.88-34.16a.39.39,0,0,1,.42-.38.4.4,0,0,1,.39.42l-1.88,34.17A.4.4,0,0,1,286.84,98.7Z"/><path class="cls-10" d="M322.45,68.6H294.24a.41.41,0,0,1,0-.82h28.21a.41.41,0,1,1,0,.82Z"/><path class="cls-10" d="M318.2,73.58H294a.41.41,0,0,1-.41-.41.41.41,0,0,1,.41-.41H318.2a.41.41,0,0,1,.41.41A.41.41,0,0,1,318.2,73.58Z"/><path class="cls-10" d="M307.79,78.72h-14.1a.41.41,0,1,1,0-.81h14.1a.41.41,0,1,1,0,.81Z"/><path class="cls-10" d="M310.35,88.75H293.14a.41.41,0,1,1,0-.81h17.21a.41.41,0,1,1,0,.81Z"/><path class="cls-10" d="M307,93.89H292.85a.41.41,0,0,1,0-.81H307a.41.41,0,0,1,0,.81Z"/><path class="cls-10" d="M315.21,93.89h-4.52a.41.41,0,0,1,0-.81h4.52a.41.41,0,1,1,0,.81Z"/><path class="cls-10" d="M319.83,83.7H293.41a.41.41,0,0,1,0-.81h26.42a.41.41,0,0,1,0,.81Z"/><path class="cls-7" d="M295.2,156.31c-6.12,0-11.13-1.8-14.24-5.17-3.33-3.59-4.71-9.24-3.79-15.49a18.7,18.7,0,0,1,11.95-15.73,28.66,28.66,0,0,1,24.23.32c3.29,1.66,5.35,3.74,6.13,6.21a.82.82,0,0,1-.53,1,.8.8,0,0,1-1-.53c-.64-2-2.43-3.8-5.31-5.24a27,27,0,0,0-22.84-.3,17.12,17.12,0,0,0-11,14.48c-.85,5.77.38,10.93,3.37,14.16,4.15,4.49,11,4.81,14.76,4.6,6.94-.38,12.9-2.8,16.8-6.82,4.56-4.69,5.84-11.72,3-16.34a5.11,5.11,0,0,0-3.51-2.59.81.81,0,0,1,.16-1.62,6.49,6.49,0,0,1,4.73,3.36c3.24,5.23,1.87,13.11-3.19,18.32-4.19,4.31-10.54,6.91-17.88,7.31C296.39,156.3,295.79,156.31,295.2,156.31Z"/></g><g id="Character"><path class="cls-15" d="M87.62,71.67l-2.89,5-2.82,5.14c-1.86,3.43-3.64,6.88-5.26,10.36-.81,1.74-1.58,3.47-2.28,5.22l-.13.31s0,0,0,.08a.77.77,0,0,0-.09.13c0,.09-.09.18-.14.29a2.08,2.08,0,0,0,.12,1.12A11.13,11.13,0,0,0,76.5,103a41.63,41.63,0,0,0,3.91,3.7l-2.35,5a26,26,0,0,1-3.23-1.14,25.17,25.17,0,0,1-3-1.57,17.33,17.33,0,0,1-5.64-5.23,11.66,11.66,0,0,1-1.76-4.56,10.31,10.31,0,0,1,0-2.72,8.4,8.4,0,0,1,.23-1.33l.16-.65.12-.39c.65-2,1.31-4.07,2.09-6A124.79,124.79,0,0,1,72,76.67C73,74.82,73.93,73,75,71.2s2-3.56,3.2-5.39Z"/><path class="cls-15" d="M77.9,106.13l5.25-1.37.3,8.49s-4.11.61-6.62-1.91Z"/><polygon class="cls-15" points="90.6 103.33 89.41 110.78 83.45 113.25 83.15 104.76 90.6 103.33"/><path class="cls-9" d="M112.33,31.69c.12.58.52,1,.9.91s.6-.61.48-1.19-.52-1-.9-.91S112.21,31.11,112.33,31.69Z"/><path class="cls-16" d="M112.8,32.69a21.21,21.21,0,0,0,3.78,4.4,3.4,3.4,0,0,1-2.66,1.09Z"/><path class="cls-9" d="M109.55,28.9a.38.38,0,0,1-.24-.09.35.35,0,0,1,0-.5,3.46,3.46,0,0,1,3-1.15.35.35,0,0,1-.12.69h0a2.75,2.75,0,0,0-2.33.94A.38.38,0,0,1,109.55,28.9Z"/><path class="cls-15" d="M95.79,39.86c1.06,5.37,2.11,15.22-1.65,18.81,0,0,1.47,5.45,11.45,5.45,11,0,5.25-5.45,5.25-5.45-6-1.43-5.84-5.88-4.79-10.06Z"/><path class="cls-9" d="M92,59.66c-.8-1.49-1.69-3.2.14-3.73,2-.59,14.94-1.69,18.73-.58-1.16,2.08.81,4.63.81,4.63Z"/><path class="cls-10" d="M59.44,310.21a2.34,2.34,0,0,0,1.83-.1.68.68,0,0,0,.16-.8.78.78,0,0,0-.44-.52c-1-.47-3.27.46-3.37.5a.19.19,0,0,0-.11.16.19.19,0,0,0,.1.16A9.27,9.27,0,0,0,59.44,310.21ZM60.63,309a1,1,0,0,1,.21.07.43.43,0,0,1,.26.3c.09.31,0,.41-.06.44-.39.34-1.86,0-2.89-.39A5.82,5.82,0,0,1,60.63,309Z"/><path class="cls-10" d="M57.65,309.62h.08c.83-.25,2.61-1.51,2.63-2.34a.55.55,0,0,0-.44-.56.94.94,0,0,0-.77.06c-1,.5-1.61,2.53-1.63,2.62a.17.17,0,0,0,0,.17A.2.2,0,0,0,57.65,309.62Zm2.08-2.6.07,0c.22.08.22.19.21.23,0,.49-1.18,1.48-2,1.88a4.22,4.22,0,0,1,1.33-2.06A.61.61,0,0,1,59.73,307Z"/><path class="cls-10" d="M113.68,311.45c.94,0,1.85-.13,2.15-.56a.64.64,0,0,0,0-.76.82.82,0,0,0-.55-.4c-1.22-.34-3.79,1.13-3.9,1.19a.17.17,0,0,0-.08.18.16.16,0,0,0,.13.14A13.25,13.25,0,0,0,113.68,311.45Zm1.16-1.43a1.22,1.22,0,0,1,.34,0,.56.56,0,0,1,.34.25c.12.21.08.32,0,.38-.34.48-2.2.49-3.56.29A7.82,7.82,0,0,1,114.84,310Z"/><path class="cls-10" d="M111.46,311.24h.07c.88-.4,2.64-2,2.51-2.82,0-.19-.17-.44-.65-.48a1.28,1.28,0,0,0-1,.29c-.93.77-1.13,2.75-1.14,2.83a.18.18,0,0,0,.08.16A.17.17,0,0,0,111.46,311.24Zm1.79-3h.1c.32,0,.34.16.34.2.08.5-1.11,1.74-2,2.29a4,4,0,0,1,1-2.27A.91.91,0,0,1,113.25,308.27Z"/><polygon class="cls-15" points="103.38 311.07 110.72 311.07 111.46 294.06 104.11 294.06 103.38 311.07"/><polygon class="cls-15" points="49.46 307.67 56.64 309.22 63.85 293.38 56.67 291.82 49.46 307.67"/><path class="cls-9" d="M57.33,308.5l-8.07-1.74a.62.62,0,0,0-.71.35l-2.8,6.08a1.07,1.07,0,0,0,.77,1.5c2.83.57,4.23.7,7.78,1.46,2.18.48,7.11,1.68,10.12,2.33s4-2.24,2.88-2.78c-5.27-2.41-7.47-4.53-8.9-6.5A1.81,1.81,0,0,0,57.33,308.5Z"/><path class="cls-9" d="M110.68,310.22h-8a.63.63,0,0,0-.62.5l-1.45,6.53a1.07,1.07,0,0,0,1,1.31c2.9-.05,7.08-.22,10.72-.22,4.25,0,7.92.23,12.91.23,3,0,3.85-3.05,2.59-3.32-5.74-1.26-10.44-1.4-15.4-4.46A3.44,3.44,0,0,0,110.68,310.22Z"/><path class="cls-10" d="M81,60.33C74.1,61.91,68.42,79.48,68.42,79.48L82.25,90a30.17,30.17,0,0,0,7.33-13.58C92,67.23,88,58.71,81,60.33Z"/><path class="cls-17" d="M81,60.33C74.1,61.91,68.42,79.48,68.42,79.48L82.25,90a30.17,30.17,0,0,0,7.33-13.58C92,67.23,88,58.71,81,60.33Z"/><path class="cls-18" d="M86.88,73.25c-3.74,3.7-5,10.44-5.25,16.3l.61.47a30.2,30.2,0,0,0,7.34-13.58c.14-.55.26-1.1.36-1.64Z"/><path class="cls-10" d="M122.14,60.71s7.82,8.83.43,63.49H83.28c-.27-6,3.52-35.45-2.3-63.87a102.86,102.86,0,0,1,13.16-1.66,140.87,140.87,0,0,1,16.7,0A73.5,73.5,0,0,1,122.14,60.71Z"/><path class="cls-17" d="M122.14,60.71s7.82,8.83.43,63.49H83.28c-.27-6,3.52-35.45-2.3-63.87a102.86,102.86,0,0,1,13.16-1.66,140.87,140.87,0,0,1,16.7,0A73.5,73.5,0,0,1,122.14,60.71Z"/><path class="cls-18" d="M125.57,77.41l-.15-.13-8.93,2.14c-.51,6,5.7,13.26,8.9,16.56A171.45,171.45,0,0,0,125.57,77.41Z"/><polygon class="cls-18" points="111.45 294.06 111.08 302.83 103.73 302.83 104.11 294.06 111.45 294.06"/><polygon class="cls-18" points="56.66 291.83 63.85 293.38 60.13 301.55 52.95 299.99 56.66 291.83"/><path class="cls-15" d="M92.71,34.4c1.89,7,2.64,11.26,7,14.19,6.54,4.4,14.68-.66,14.94-8.12.22-6.72-2.9-17.11-10.46-18.53A10,10,0,0,0,92.71,34.4Z"/><path class="cls-9" d="M96,45.88c3,1.71,13.91-4,11.67-12.69,0,0,4.16-5,3.69-10.52S107.05,15,103,16.23c-3.55,1-3.45,3-3.45,3s-16.79,2-13.2,8.8C79.53,35.47,92.21,43.74,96,45.88Z"/><path class="cls-9" d="M86.84,28.59s-2-3.47-4.92-1.53C83.29,27.08,85.54,27.32,86.84,28.59Z"/><path class="cls-9" d="M110.77,26.3s3.66-8.25-2-10.91A14.09,14.09,0,0,1,110.77,26.3Z"/><path class="cls-15" d="M104.7,34.69a8.27,8.27,0,0,0,3,4.39c1.91,1.42,3.34,0,3.21-2.15-.13-1.94-1.27-5-3.38-5.61S104.15,32.58,104.7,34.69Z"/><path class="cls-9" d="M108.64,124.2s-8.34,56.15-12.92,77.18c-5,23-31.89,99.23-31.89,99.23l-13.15-2.84s18.8-62.1,23-94.3c3.23-24.74,9.6-79.27,9.6-79.27Z"/><path class="cls-10" d="M67,296.22c.06,0-2.45,4.76-2.45,4.76l-14.79-3.2L51,293.33Z"/><path class="cls-19" d="M103.37,144.21c-9.64,1.89-8.62,37.84-7.46,56.33,2.78-13.07,6.85-38.22,9.63-56.07A3.29,3.29,0,0,0,103.37,144.21Z"/><path class="cls-9" d="M122.57,124.2s1,54.93.22,77.33c-.83,23.31-9,99.6-9,99.6H101.37s-.45-74.93-1-97.82c-.6-24.95-3.61-79.11-3.61-79.11Z"/><polygon class="cls-11" points="191.66 85.48 166.31 85.48 164.89 111.26 190.21 111.94 191.66 85.48"/><path class="cls-10" d="M178.34,102.07,153,98.94A218.82,218.82,0,0,0,157.52,73l25.54,3.15A219.06,219.06,0,0,1,178.34,102.07Z"/><path class="cls-10" d="M116.21,296.18c.06,0-.7,5.16-.7,5.16H100.37l-.41-4.61Z"/><path class="cls-15" d="M125.76,67.41c1.13,1.76,2.42,3.73,3.71,5.56s2.61,3.68,4,5.45a76,76,0,0,0,8.76,9.77c.77.71,1.56,1.37,2.36,2l.6.46a1.18,1.18,0,0,0-.35-.12c-.26-.05-.39,0-.32,0a3.51,3.51,0,0,0,1.65-.38,21.27,21.27,0,0,0,2.53-1.31,89.79,89.79,0,0,0,10.56-8.19l4.29,3.47a51.09,51.09,0,0,1-9.62,11.73,23.44,23.44,0,0,1-3.43,2.53,13.48,13.48,0,0,1-5.05,1.87,8.9,8.9,0,0,1-3.82-.32,8.7,8.7,0,0,1-2-.9l-.86-.55a40,40,0,0,1-3.27-2.34,71.9,71.9,0,0,1-10.77-10.81c-1.57-1.94-3.09-3.9-4.5-5.93s-2.76-4-4.08-6.32Z"/><path class="cls-10" d="M111.33,71.82C109,81.67,126.8,91.31,126.8,91.31l11.58-13.56a95.87,95.87,0,0,0-11.83-14.28C118.45,55.7,113.12,64.32,111.33,71.82Z"/><path class="cls-17" d="M111.33,71.82C109,81.67,126.8,91.31,126.8,91.31l11.58-13.56a95.87,95.87,0,0,0-11.83-14.28C118.45,55.7,113.12,64.32,111.33,71.82Z"/><path class="cls-15" d="M158.08,82.71l2.73-8.77L168,77.52s-1,6.4-6.28,7.51Z"/><polygon class="cls-15" points="163.7 71.5 170.18 73.29 168 77.52 160.81 73.94 163.7 71.5"/></g></g></g></svg>